<svg width="17" height="17" viewBox="0 0 17 17" fill="none" xmlns="http://www.w3.org/2000/svg">
<path fill-rule="evenodd" clip-rule="evenodd" d="M3.0895 0.23291H14.3315C15.6909 0.23291 16.797 1.33986 16.797 2.69838V13.9404C16.797 15.2998 15.6909 16.4058 14.3315 16.4058H3.0895C1.73007 16.4058 0.624023 15.2998 0.624023 13.9404V2.69838C0.624023 1.33986 1.73007 0.23291 3.0895 0.23291ZM4.21797 2.02985H3.08946C2.72107 2.02985 2.42097 2.32995 2.42097 2.69833V3.82685H4.21797V2.02985ZM2.42097 13.9403V12.8118H4.21797V14.6088H3.08946C2.72107 14.6088 2.42097 14.3087 2.42097 13.9403ZM14.9999 13.9403C14.9999 14.3087 14.6998 14.6088 14.3314 14.6088H13.2029V12.8118H14.9999V13.9403ZM14.9999 2.69833V3.82685H13.2029V2.02985H14.3314C14.6998 2.02985 14.9999 2.32995 14.9999 2.69833ZM14.9999 11.0148H13.2029V9.21782H14.9999V11.0148ZM13.2029 7.42083H14.9999V5.62384H13.2029V7.42083ZM4.21797 11.0148H2.42097V9.21782H4.21797V11.0148ZM2.42097 7.42083H4.21797V5.62384H2.42097V7.42083Z" fill="#144A6B"/>
</svg>
