<svg width="19" height="19" viewBox="0 0 19 19" fill="none" xmlns="http://www.w3.org/2000/svg">
<path d="M17.7732 9.61699L9.68671 0.63203C9.34618 0.252865 8.69207 0.252865 8.35155 0.63203L0.265079 9.61699C0.148684 9.74601 0.0722835 9.90607 0.0451665 10.0777C0.0180496 10.2493 0.0413845 10.4252 0.112334 10.5838C0.256094 10.9081 0.577755 11.1166 0.932661 11.1166H2.72965V17.4061C2.72965 17.6444 2.82432 17.8729 2.99282 18.0414C3.16132 18.2099 3.38985 18.3046 3.62815 18.3046H6.32364C6.56193 18.3046 6.79047 18.2099 6.95897 18.0414C7.12747 17.8729 7.22214 17.6444 7.22214 17.4061V13.8121H10.8161V17.4061C10.8161 17.6444 10.9108 17.8729 11.0793 18.0414C11.2478 18.2099 11.4763 18.3046 11.7146 18.3046H14.4101C14.6484 18.3046 14.8769 18.2099 15.0454 18.0414C15.2139 17.8729 15.3086 17.6444 15.3086 17.4061V11.1166H17.1056C17.2796 11.1173 17.4501 11.0674 17.5962 10.973C17.7423 10.8785 17.8578 10.7435 17.9286 10.5846C17.9994 10.4256 18.0224 10.2495 17.9948 10.0777C17.9672 9.90587 17.8902 9.7458 17.7732 9.61699Z" fill="#5E849C"/>
</svg>
