<svg width="18" height="20" viewBox="0 0 18 20" fill="none" xmlns="http://www.w3.org/2000/svg">
<path fill-rule="evenodd" clip-rule="evenodd" d="M10.3671 18.8993C10.5526 19.0408 10.7759 19.1121 10.9992 19.1121C11.1585 19.1121 11.3189 19.0754 11.4667 19.002C11.8231 18.8249 12.0474 18.4611 12.0474 18.0638V11.4494L17.2645 1.78981C17.4396 1.46486 17.4312 1.07177 17.2425 0.755196C17.0528 0.437578 16.7111 0.243652 16.3421 0.243652H1.66665C1.30081 0.243652 0.96118 0.434433 0.771448 0.74681C0.580667 1.05919 0.56704 1.44809 0.735807 1.77304L5.7307 11.44V14.8719C5.7307 15.2 5.88479 15.5093 6.14685 15.7074L10.3671 18.8993ZM9.95113 15.957L7.82739 14.35V11.1843C7.82739 11.0177 7.78755 10.852 7.70998 10.7032L3.38911 2.34029H14.5844L10.0769 10.6864C9.99516 10.8395 9.95113 11.0103 9.95113 11.1843V15.957Z" fill="white"/>
</svg>
